<mxfile host="Electron" agent="Mozilla/5.0 (Windows NT 10.0; Win64; x64) AppleWebKit/537.36 (KHTML, like Gecko) draw.io/27.0.9 Chrome/134.0.6998.205 Electron/35.4.0 Safari/537.36" version="27.0.9">
  <diagram name="Página-1" id="LDHHi4Mo1AUp3jhJ5WnQ">
    <mxGraphModel dx="817" dy="479" grid="1" gridSize="10" guides="1" tooltips="1" connect="1" arrows="1" fold="1" page="1" pageScale="1" pageWidth="1200" pageHeight="1600" math="0" shadow="0">
      <root>
        <mxCell id="0" />
        <mxCell id="1" parent="0" />
        <mxCell id="FxKsTc32eogd92blQFM0-1" value="Dormitorio" style="whiteSpace=wrap;html=1;align=center;fillColor=#f0a30a;strokeColor=#BD7000;fontColor=#000000;" vertex="1" parent="1">
          <mxGeometry x="620" y="340" width="100" height="40" as="geometry" />
        </mxCell>
        <mxCell id="FxKsTc32eogd92blQFM0-2" value="Montador" style="whiteSpace=wrap;html=1;align=center;fillColor=#f0a30a;strokeColor=#BD7000;fontColor=#000000;" vertex="1" parent="1">
          <mxGeometry x="220" y="340" width="100" height="40" as="geometry" />
        </mxCell>
        <mxCell id="FxKsTc32eogd92blQFM0-3" value="Cliente" style="whiteSpace=wrap;html=1;align=center;fillColor=#f0a30a;strokeColor=#BD7000;fontColor=#000000;" vertex="1" parent="1">
          <mxGeometry x="420" y="160" width="100" height="40" as="geometry" />
        </mxCell>
        <mxCell id="FxKsTc32eogd92blQFM0-4" value="" style="endArrow=none;html=1;rounded=0;" edge="1" target="FxKsTc32eogd92blQFM0-5" parent="1" source="FxKsTc32eogd92blQFM0-1">
          <mxGeometry relative="1" as="geometry">
            <mxPoint x="560" y="365" as="sourcePoint" />
            <mxPoint x="620" y="365" as="targetPoint" />
          </mxGeometry>
        </mxCell>
        <mxCell id="FxKsTc32eogd92blQFM0-5" value="&lt;u&gt;Codigo_Modelo&lt;/u&gt;" style="ellipse;whiteSpace=wrap;html=1;align=center;" vertex="1" parent="1">
          <mxGeometry x="730" y="260" width="50" height="30" as="geometry" />
        </mxCell>
        <mxCell id="FxKsTc32eogd92blQFM0-6" value="" style="endArrow=none;html=1;rounded=0;" edge="1" target="FxKsTc32eogd92blQFM0-7" parent="1" source="FxKsTc32eogd92blQFM0-2">
          <mxGeometry relative="1" as="geometry">
            <mxPoint x="220" y="255" as="sourcePoint" />
            <mxPoint x="280" y="255" as="targetPoint" />
          </mxGeometry>
        </mxCell>
        <mxCell id="FxKsTc32eogd92blQFM0-7" value="&lt;u&gt;NIF&lt;/u&gt;" style="ellipse;whiteSpace=wrap;html=1;align=center;" vertex="1" parent="1">
          <mxGeometry x="170" y="160" width="50" height="30" as="geometry" />
        </mxCell>
        <mxCell id="FxKsTc32eogd92blQFM0-12" value="" style="endArrow=none;html=1;rounded=0;" edge="1" target="FxKsTc32eogd92blQFM0-13" parent="1" source="FxKsTc32eogd92blQFM0-2">
          <mxGeometry relative="1" as="geometry">
            <mxPoint x="140" y="285" as="sourcePoint" />
            <mxPoint x="200" y="285" as="targetPoint" />
          </mxGeometry>
        </mxCell>
        <mxCell id="FxKsTc32eogd92blQFM0-13" value="Fecha" style="ellipse;whiteSpace=wrap;html=1;align=center;" vertex="1" parent="1">
          <mxGeometry x="110" y="180" width="50" height="30" as="geometry" />
        </mxCell>
        <mxCell id="FxKsTc32eogd92blQFM0-16" value="" style="endArrow=none;html=1;rounded=0;" edge="1" target="FxKsTc32eogd92blQFM0-17" parent="1" source="FxKsTc32eogd92blQFM0-2">
          <mxGeometry relative="1" as="geometry">
            <mxPoint x="335" y="395" as="sourcePoint" />
            <mxPoint x="395" y="395" as="targetPoint" />
          </mxGeometry>
        </mxCell>
        <mxCell id="FxKsTc32eogd92blQFM0-17" value="Telefono" style="ellipse;whiteSpace=wrap;html=1;align=center;" vertex="1" parent="1">
          <mxGeometry x="50" y="400" width="50" height="30" as="geometry" />
        </mxCell>
        <mxCell id="FxKsTc32eogd92blQFM0-18" value="" style="endArrow=none;html=1;rounded=0;" edge="1" target="FxKsTc32eogd92blQFM0-19" parent="1" source="FxKsTc32eogd92blQFM0-2">
          <mxGeometry relative="1" as="geometry">
            <mxPoint x="225" y="425" as="sourcePoint" />
            <mxPoint x="285" y="425" as="targetPoint" />
          </mxGeometry>
        </mxCell>
        <mxCell id="FxKsTc32eogd92blQFM0-19" value="Direccion" style="ellipse;whiteSpace=wrap;html=1;align=center;" vertex="1" parent="1">
          <mxGeometry x="30" y="330" width="50" height="30" as="geometry" />
        </mxCell>
        <mxCell id="FxKsTc32eogd92blQFM0-20" value="" style="endArrow=none;html=1;rounded=0;" edge="1" target="FxKsTc32eogd92blQFM0-21" parent="1" source="FxKsTc32eogd92blQFM0-2">
          <mxGeometry relative="1" as="geometry">
            <mxPoint x="110" y="405" as="sourcePoint" />
            <mxPoint x="170" y="405" as="targetPoint" />
          </mxGeometry>
        </mxCell>
        <mxCell id="FxKsTc32eogd92blQFM0-21" value="Numero_de_Dormitorios_Montados" style="ellipse;whiteSpace=wrap;html=1;align=center;" vertex="1" parent="1">
          <mxGeometry x="70" y="250" width="50" height="30" as="geometry" />
        </mxCell>
        <mxCell id="FxKsTc32eogd92blQFM0-23" value="" style="endArrow=none;html=1;rounded=0;" edge="1" target="FxKsTc32eogd92blQFM0-24" parent="1" source="FxKsTc32eogd92blQFM0-2">
          <mxGeometry relative="1" as="geometry">
            <mxPoint x="210" y="455" as="sourcePoint" />
            <mxPoint x="270" y="455" as="targetPoint" />
          </mxGeometry>
        </mxCell>
        <mxCell id="FxKsTc32eogd92blQFM0-24" value="Nombre" style="ellipse;whiteSpace=wrap;html=1;align=center;" vertex="1" parent="1">
          <mxGeometry x="245" y="440" width="50" height="30" as="geometry" />
        </mxCell>
        <mxCell id="FxKsTc32eogd92blQFM0-25" value="" style="endArrow=none;html=1;rounded=0;" edge="1" target="FxKsTc32eogd92blQFM0-26" parent="1" source="FxKsTc32eogd92blQFM0-3">
          <mxGeometry relative="1" as="geometry">
            <mxPoint x="410" y="55" as="sourcePoint" />
            <mxPoint x="470" y="55" as="targetPoint" />
          </mxGeometry>
        </mxCell>
        <mxCell id="FxKsTc32eogd92blQFM0-26" value="&lt;u&gt;NIF&lt;/u&gt;" style="ellipse;whiteSpace=wrap;html=1;align=center;" vertex="1" parent="1">
          <mxGeometry x="500" y="40" width="50" height="30" as="geometry" />
        </mxCell>
        <mxCell id="FxKsTc32eogd92blQFM0-27" value="" style="endArrow=none;html=1;rounded=0;" edge="1" target="FxKsTc32eogd92blQFM0-28" parent="1" source="FxKsTc32eogd92blQFM0-3">
          <mxGeometry relative="1" as="geometry">
            <mxPoint x="520" y="105" as="sourcePoint" />
            <mxPoint x="580" y="105" as="targetPoint" />
          </mxGeometry>
        </mxCell>
        <mxCell id="FxKsTc32eogd92blQFM0-28" value="nombre" style="ellipse;whiteSpace=wrap;html=1;align=center;" vertex="1" parent="1">
          <mxGeometry x="555" y="90" width="50" height="30" as="geometry" />
        </mxCell>
        <mxCell id="FxKsTc32eogd92blQFM0-29" value="" style="endArrow=none;html=1;rounded=0;" edge="1" target="FxKsTc32eogd92blQFM0-30" parent="1" source="FxKsTc32eogd92blQFM0-3">
          <mxGeometry relative="1" as="geometry">
            <mxPoint x="560" y="165" as="sourcePoint" />
            <mxPoint x="620" y="165" as="targetPoint" />
          </mxGeometry>
        </mxCell>
        <mxCell id="FxKsTc32eogd92blQFM0-30" value="dirección" style="ellipse;whiteSpace=wrap;html=1;align=center;" vertex="1" parent="1">
          <mxGeometry x="445" y="20" width="50" height="30" as="geometry" />
        </mxCell>
        <mxCell id="FxKsTc32eogd92blQFM0-31" value="" style="endArrow=none;html=1;rounded=0;" edge="1" target="FxKsTc32eogd92blQFM0-32" parent="1" source="FxKsTc32eogd92blQFM0-3">
          <mxGeometry relative="1" as="geometry">
            <mxPoint x="310" y="145" as="sourcePoint" />
            <mxPoint x="370" y="145" as="targetPoint" />
          </mxGeometry>
        </mxCell>
        <mxCell id="FxKsTc32eogd92blQFM0-32" value="teléfono" style="ellipse;whiteSpace=wrap;html=1;align=center;" vertex="1" parent="1">
          <mxGeometry x="400" y="40" width="50" height="30" as="geometry" />
        </mxCell>
        <mxCell id="FxKsTc32eogd92blQFM0-33" value="" style="endArrow=none;html=1;rounded=0;" edge="1" target="FxKsTc32eogd92blQFM0-34" parent="1" source="FxKsTc32eogd92blQFM0-3">
          <mxGeometry relative="1" as="geometry">
            <mxPoint x="390" y="190" as="sourcePoint" />
            <mxPoint x="510" y="195" as="targetPoint" />
          </mxGeometry>
        </mxCell>
        <mxCell id="FxKsTc32eogd92blQFM0-34" value="Fecha_De_Compra" style="ellipse;whiteSpace=wrap;html=1;align=center;" vertex="1" parent="1">
          <mxGeometry x="350" y="80" width="50" height="30" as="geometry" />
        </mxCell>
        <mxCell id="FxKsTc32eogd92blQFM0-35" value="Monta" style="shape=rhombus;perimeter=rhombusPerimeter;whiteSpace=wrap;html=1;align=center;fillColor=#76608a;fontColor=#ffffff;strokeColor=#432D57;" vertex="1" parent="1">
          <mxGeometry x="405" y="340" width="90" height="40" as="geometry" />
        </mxCell>
        <mxCell id="FxKsTc32eogd92blQFM0-36" value="" style="endArrow=none;html=1;rounded=0;exitX=0;exitY=0.5;exitDx=0;exitDy=0;" edge="1" source="FxKsTc32eogd92blQFM0-35" parent="1" target="FxKsTc32eogd92blQFM0-2">
          <mxGeometry relative="1" as="geometry">
            <mxPoint x="382" y="330" as="sourcePoint" />
            <mxPoint x="335" y="360" as="targetPoint" />
          </mxGeometry>
        </mxCell>
        <mxCell id="FxKsTc32eogd92blQFM0-37" value="(1,N)" style="resizable=0;html=1;whiteSpace=wrap;align=right;verticalAlign=bottom;" connectable="0" vertex="1" parent="FxKsTc32eogd92blQFM0-36">
          <mxGeometry x="1" relative="1" as="geometry">
            <mxPoint x="34" as="offset" />
          </mxGeometry>
        </mxCell>
        <mxCell id="FxKsTc32eogd92blQFM0-38" value="" style="endArrow=none;html=1;rounded=0;exitX=1;exitY=0.5;exitDx=0;exitDy=0;" edge="1" source="FxKsTc32eogd92blQFM0-35" parent="1" target="FxKsTc32eogd92blQFM0-1">
          <mxGeometry relative="1" as="geometry">
            <mxPoint x="382" y="330" as="sourcePoint" />
            <mxPoint x="555" y="360" as="targetPoint" />
          </mxGeometry>
        </mxCell>
        <mxCell id="FxKsTc32eogd92blQFM0-39" value="(1,N)" style="resizable=0;html=1;whiteSpace=wrap;align=right;verticalAlign=bottom;" connectable="0" vertex="1" parent="FxKsTc32eogd92blQFM0-38">
          <mxGeometry x="1" relative="1" as="geometry">
            <mxPoint as="offset" />
          </mxGeometry>
        </mxCell>
        <mxCell id="FxKsTc32eogd92blQFM0-40" value="" style="endArrow=none;html=1;rounded=0;" edge="1" target="FxKsTc32eogd92blQFM0-41" parent="1" source="FxKsTc32eogd92blQFM0-35">
          <mxGeometry relative="1" as="geometry">
            <mxPoint x="415" y="275" as="sourcePoint" />
            <mxPoint x="475" y="275" as="targetPoint" />
          </mxGeometry>
        </mxCell>
        <mxCell id="FxKsTc32eogd92blQFM0-41" value="Diferentes_Fechas" style="ellipse;whiteSpace=wrap;html=1;align=center;" vertex="1" parent="1">
          <mxGeometry x="420" y="470" width="50" height="30" as="geometry" />
        </mxCell>
        <mxCell id="FxKsTc32eogd92blQFM0-43" value="Compra" style="shape=rhombus;perimeter=rhombusPerimeter;whiteSpace=wrap;html=1;align=center;fillColor=#76608a;fontColor=#ffffff;strokeColor=#432D57;" vertex="1" parent="1">
          <mxGeometry x="540" y="250" width="90" height="40" as="geometry" />
        </mxCell>
        <mxCell id="FxKsTc32eogd92blQFM0-44" value="" style="endArrow=none;html=1;rounded=0;exitX=0;exitY=0.5;exitDx=0;exitDy=0;" edge="1" source="FxKsTc32eogd92blQFM0-43" parent="1" target="FxKsTc32eogd92blQFM0-3">
          <mxGeometry relative="1" as="geometry">
            <mxPoint x="517" y="240" as="sourcePoint" />
            <mxPoint x="470" y="270" as="targetPoint" />
          </mxGeometry>
        </mxCell>
        <mxCell id="FxKsTc32eogd92blQFM0-45" value="(1,N)" style="resizable=0;html=1;whiteSpace=wrap;align=right;verticalAlign=bottom;" connectable="0" vertex="1" parent="FxKsTc32eogd92blQFM0-44">
          <mxGeometry x="1" relative="1" as="geometry">
            <mxPoint x="34" as="offset" />
          </mxGeometry>
        </mxCell>
        <mxCell id="FxKsTc32eogd92blQFM0-46" value="" style="endArrow=none;html=1;rounded=0;exitX=1;exitY=0.5;exitDx=0;exitDy=0;" edge="1" source="FxKsTc32eogd92blQFM0-43" parent="1" target="FxKsTc32eogd92blQFM0-1">
          <mxGeometry relative="1" as="geometry">
            <mxPoint x="517" y="240" as="sourcePoint" />
            <mxPoint x="690" y="270" as="targetPoint" />
          </mxGeometry>
        </mxCell>
        <mxCell id="FxKsTc32eogd92blQFM0-47" value="(1,N)" style="resizable=0;html=1;whiteSpace=wrap;align=right;verticalAlign=bottom;" connectable="0" vertex="1" parent="FxKsTc32eogd92blQFM0-46">
          <mxGeometry x="1" relative="1" as="geometry">
            <mxPoint as="offset" />
          </mxGeometry>
        </mxCell>
      </root>
    </mxGraphModel>
  </diagram>
</mxfile>
